<mxfile host="app.diagrams.net" modified="2022-11-30T07:30:05.696Z" agent="5.0 (X11)" version="20.6.0" etag="2VsPfE9WtSzEfGiXXQpJ" type="github">
  <diagram id="QGSx2GNAmhRrcQHVVRLL" name="Page-1">
    <mxGraphModel dx="1342" dy="567" grid="1" gridSize="10" guides="1" tooltips="1" connect="1" arrows="1" fold="1" page="1" pageScale="1" pageWidth="850" pageHeight="1100" math="0" shadow="0">
      <root>
        <mxCell id="0" />
        <mxCell id="1" parent="0" />
        <mxCell id="9gGM50FTk6xiZW7qDxYb-1" value="Bayaran" style="swimlane;fontStyle=1;align=center;verticalAlign=top;childLayout=stackLayout;horizontal=1;startSize=26;horizontalStack=0;resizeParent=1;resizeParentMax=0;resizeLast=0;collapsible=1;marginBottom=0;" vertex="1" parent="1">
          <mxGeometry x="600" y="240" width="200" height="116" as="geometry" />
        </mxCell>
        <mxCell id="9gGM50FTk6xiZW7qDxYb-2" value="..." style="text;strokeColor=none;fillColor=none;align=left;verticalAlign=top;spacingLeft=4;spacingRight=4;overflow=hidden;rotatable=0;points=[[0,0.5],[1,0.5]];portConstraint=eastwest;" vertex="1" parent="9gGM50FTk6xiZW7qDxYb-1">
          <mxGeometry y="26" width="200" height="26" as="geometry" />
        </mxCell>
        <mxCell id="9gGM50FTk6xiZW7qDxYb-3" value="" style="line;strokeWidth=1;fillColor=none;align=left;verticalAlign=middle;spacingTop=-1;spacingLeft=3;spacingRight=3;rotatable=0;labelPosition=right;points=[];portConstraint=eastwest;strokeColor=inherit;" vertex="1" parent="9gGM50FTk6xiZW7qDxYb-1">
          <mxGeometry y="52" width="200" height="8" as="geometry" />
        </mxCell>
        <mxCell id="9gGM50FTk6xiZW7qDxYb-4" value="+ hitungbayaran(peg : Pegawai): int" style="text;strokeColor=none;fillColor=none;align=left;verticalAlign=top;spacingLeft=4;spacingRight=4;overflow=hidden;rotatable=0;points=[[0,0.5],[1,0.5]];portConstraint=eastwest;fontStyle=0" vertex="1" parent="9gGM50FTk6xiZW7qDxYb-1">
          <mxGeometry y="60" width="200" height="30" as="geometry" />
        </mxCell>
        <mxCell id="9gGM50FTk6xiZW7qDxYb-6" value="+ main(args[] : String) : void" style="text;strokeColor=none;fillColor=none;align=left;verticalAlign=top;spacingLeft=4;spacingRight=4;overflow=hidden;rotatable=0;points=[[0,0.5],[1,0.5]];portConstraint=eastwest;fontStyle=4" vertex="1" parent="9gGM50FTk6xiZW7qDxYb-1">
          <mxGeometry y="90" width="200" height="26" as="geometry" />
        </mxCell>
        <mxCell id="9gGM50FTk6xiZW7qDxYb-7" value="Pegawai" style="swimlane;fontStyle=1;align=center;verticalAlign=top;childLayout=stackLayout;horizontal=1;startSize=26;horizontalStack=0;resizeParent=1;resizeParentMax=0;resizeLast=0;collapsible=1;marginBottom=0;" vertex="1" parent="1">
          <mxGeometry x="280" y="240" width="210" height="160" as="geometry" />
        </mxCell>
        <mxCell id="9gGM50FTk6xiZW7qDxYb-8" value="# nama : String" style="text;strokeColor=none;fillColor=none;align=left;verticalAlign=top;spacingLeft=4;spacingRight=4;overflow=hidden;rotatable=0;points=[[0,0.5],[1,0.5]];portConstraint=eastwest;" vertex="1" parent="9gGM50FTk6xiZW7qDxYb-7">
          <mxGeometry y="26" width="210" height="26" as="geometry" />
        </mxCell>
        <mxCell id="9gGM50FTk6xiZW7qDxYb-12" value="# gaji: int" style="text;strokeColor=none;fillColor=none;align=left;verticalAlign=top;spacingLeft=4;spacingRight=4;overflow=hidden;rotatable=0;points=[[0,0.5],[1,0.5]];portConstraint=eastwest;" vertex="1" parent="9gGM50FTk6xiZW7qDxYb-7">
          <mxGeometry y="52" width="210" height="26" as="geometry" />
        </mxCell>
        <mxCell id="9gGM50FTk6xiZW7qDxYb-9" value="" style="line;strokeWidth=1;fillColor=none;align=left;verticalAlign=middle;spacingTop=-1;spacingLeft=3;spacingRight=3;rotatable=0;labelPosition=right;points=[];portConstraint=eastwest;strokeColor=inherit;" vertex="1" parent="9gGM50FTk6xiZW7qDxYb-7">
          <mxGeometry y="78" width="210" height="8" as="geometry" />
        </mxCell>
        <mxCell id="9gGM50FTk6xiZW7qDxYb-10" value="+ Pegawai(nama : String, gaji : int)" style="text;strokeColor=none;fillColor=none;align=left;verticalAlign=top;spacingLeft=4;spacingRight=4;overflow=hidden;rotatable=0;points=[[0,0.5],[1,0.5]];portConstraint=eastwest;fontStyle=1" vertex="1" parent="9gGM50FTk6xiZW7qDxYb-7">
          <mxGeometry y="86" width="210" height="24" as="geometry" />
        </mxCell>
        <mxCell id="9gGM50FTk6xiZW7qDxYb-11" value="+ infoNama() : String" style="text;strokeColor=none;fillColor=none;align=left;verticalAlign=top;spacingLeft=4;spacingRight=4;overflow=hidden;rotatable=0;points=[[0,0.5],[1,0.5]];portConstraint=eastwest;fontStyle=0" vertex="1" parent="9gGM50FTk6xiZW7qDxYb-7">
          <mxGeometry y="110" width="210" height="24" as="geometry" />
        </mxCell>
        <mxCell id="9gGM50FTk6xiZW7qDxYb-13" value="+ infoGaji(): int" style="text;strokeColor=none;fillColor=none;align=left;verticalAlign=top;spacingLeft=4;spacingRight=4;overflow=hidden;rotatable=0;points=[[0,0.5],[1,0.5]];portConstraint=eastwest;" vertex="1" parent="9gGM50FTk6xiZW7qDxYb-7">
          <mxGeometry y="134" width="210" height="26" as="geometry" />
        </mxCell>
        <mxCell id="9gGM50FTk6xiZW7qDxYb-14" value="Manager" style="swimlane;fontStyle=1;align=center;verticalAlign=top;childLayout=stackLayout;horizontal=1;startSize=26;horizontalStack=0;resizeParent=1;resizeParentMax=0;resizeLast=0;collapsible=1;marginBottom=0;" vertex="1" parent="1">
          <mxGeometry x="40" y="480" width="300" height="166" as="geometry" />
        </mxCell>
        <mxCell id="9gGM50FTk6xiZW7qDxYb-15" value="- tunjangan : int" style="text;strokeColor=none;fillColor=none;align=left;verticalAlign=top;spacingLeft=4;spacingRight=4;overflow=hidden;rotatable=0;points=[[0,0.5],[1,0.5]];portConstraint=eastwest;" vertex="1" parent="9gGM50FTk6xiZW7qDxYb-14">
          <mxGeometry y="26" width="300" height="26" as="geometry" />
        </mxCell>
        <mxCell id="9gGM50FTk6xiZW7qDxYb-17" value="" style="line;strokeWidth=1;fillColor=none;align=left;verticalAlign=middle;spacingTop=-1;spacingLeft=3;spacingRight=3;rotatable=0;labelPosition=right;points=[];portConstraint=eastwest;strokeColor=inherit;" vertex="1" parent="9gGM50FTk6xiZW7qDxYb-14">
          <mxGeometry y="52" width="300" height="8" as="geometry" />
        </mxCell>
        <mxCell id="9gGM50FTk6xiZW7qDxYb-18" value="+ Manajer(nama : String, gaji : int, tunjangan : int)" style="text;strokeColor=none;fillColor=none;align=left;verticalAlign=top;spacingLeft=4;spacingRight=4;overflow=hidden;rotatable=0;points=[[0,0.5],[1,0.5]];portConstraint=eastwest;fontStyle=1" vertex="1" parent="9gGM50FTk6xiZW7qDxYb-14">
          <mxGeometry y="60" width="300" height="30" as="geometry" />
        </mxCell>
        <mxCell id="9gGM50FTk6xiZW7qDxYb-19" value="+ infoNama() : String" style="text;strokeColor=none;fillColor=none;align=left;verticalAlign=top;spacingLeft=4;spacingRight=4;overflow=hidden;rotatable=0;points=[[0,0.5],[1,0.5]];portConstraint=eastwest;fontStyle=0" vertex="1" parent="9gGM50FTk6xiZW7qDxYb-14">
          <mxGeometry y="90" width="300" height="24" as="geometry" />
        </mxCell>
        <mxCell id="9gGM50FTk6xiZW7qDxYb-20" value="+ infoGaji(): int" style="text;strokeColor=none;fillColor=none;align=left;verticalAlign=top;spacingLeft=4;spacingRight=4;overflow=hidden;rotatable=0;points=[[0,0.5],[1,0.5]];portConstraint=eastwest;" vertex="1" parent="9gGM50FTk6xiZW7qDxYb-14">
          <mxGeometry y="114" width="300" height="26" as="geometry" />
        </mxCell>
        <mxCell id="9gGM50FTk6xiZW7qDxYb-21" value="+ infoTunjangan(): int" style="text;strokeColor=none;fillColor=none;align=left;verticalAlign=top;spacingLeft=4;spacingRight=4;overflow=hidden;rotatable=0;points=[[0,0.5],[1,0.5]];portConstraint=eastwest;" vertex="1" parent="9gGM50FTk6xiZW7qDxYb-14">
          <mxGeometry y="140" width="300" height="26" as="geometry" />
        </mxCell>
        <mxCell id="9gGM50FTk6xiZW7qDxYb-22" value="Manager" style="swimlane;fontStyle=1;align=center;verticalAlign=top;childLayout=stackLayout;horizontal=1;startSize=26;horizontalStack=0;resizeParent=1;resizeParentMax=0;resizeLast=0;collapsible=1;marginBottom=0;" vertex="1" parent="1">
          <mxGeometry x="440" y="480" width="330" height="166" as="geometry" />
        </mxCell>
        <mxCell id="9gGM50FTk6xiZW7qDxYb-23" value="- bonus : int" style="text;strokeColor=none;fillColor=none;align=left;verticalAlign=top;spacingLeft=4;spacingRight=4;overflow=hidden;rotatable=0;points=[[0,0.5],[1,0.5]];portConstraint=eastwest;" vertex="1" parent="9gGM50FTk6xiZW7qDxYb-22">
          <mxGeometry y="26" width="330" height="26" as="geometry" />
        </mxCell>
        <mxCell id="9gGM50FTk6xiZW7qDxYb-24" value="" style="line;strokeWidth=1;fillColor=none;align=left;verticalAlign=middle;spacingTop=-1;spacingLeft=3;spacingRight=3;rotatable=0;labelPosition=right;points=[];portConstraint=eastwest;strokeColor=inherit;" vertex="1" parent="9gGM50FTk6xiZW7qDxYb-22">
          <mxGeometry y="52" width="330" height="8" as="geometry" />
        </mxCell>
        <mxCell id="9gGM50FTk6xiZW7qDxYb-25" value="+ Programmer(nama : String, gaji : int, bonus : int)" style="text;strokeColor=none;fillColor=none;align=left;verticalAlign=top;spacingLeft=4;spacingRight=4;overflow=hidden;rotatable=0;points=[[0,0.5],[1,0.5]];portConstraint=eastwest;fontStyle=1" vertex="1" parent="9gGM50FTk6xiZW7qDxYb-22">
          <mxGeometry y="60" width="330" height="30" as="geometry" />
        </mxCell>
        <mxCell id="9gGM50FTk6xiZW7qDxYb-26" value="+ infoNama() : String" style="text;strokeColor=none;fillColor=none;align=left;verticalAlign=top;spacingLeft=4;spacingRight=4;overflow=hidden;rotatable=0;points=[[0,0.5],[1,0.5]];portConstraint=eastwest;fontStyle=0" vertex="1" parent="9gGM50FTk6xiZW7qDxYb-22">
          <mxGeometry y="90" width="330" height="24" as="geometry" />
        </mxCell>
        <mxCell id="9gGM50FTk6xiZW7qDxYb-27" value="+ infoGaji(): int" style="text;strokeColor=none;fillColor=none;align=left;verticalAlign=top;spacingLeft=4;spacingRight=4;overflow=hidden;rotatable=0;points=[[0,0.5],[1,0.5]];portConstraint=eastwest;" vertex="1" parent="9gGM50FTk6xiZW7qDxYb-22">
          <mxGeometry y="114" width="330" height="26" as="geometry" />
        </mxCell>
        <mxCell id="9gGM50FTk6xiZW7qDxYb-28" value="+ infoBonus(): int" style="text;strokeColor=none;fillColor=none;align=left;verticalAlign=top;spacingLeft=4;spacingRight=4;overflow=hidden;rotatable=0;points=[[0,0.5],[1,0.5]];portConstraint=eastwest;" vertex="1" parent="9gGM50FTk6xiZW7qDxYb-22">
          <mxGeometry y="140" width="330" height="26" as="geometry" />
        </mxCell>
        <mxCell id="9gGM50FTk6xiZW7qDxYb-29" value="Extends" style="endArrow=block;endSize=16;endFill=0;html=1;rounded=0;exitX=0.5;exitY=0;exitDx=0;exitDy=0;entryX=1;entryY=1;entryDx=0;entryDy=0;" edge="1" parent="1" source="9gGM50FTk6xiZW7qDxYb-22" target="9gGM50FTk6xiZW7qDxYb-7">
          <mxGeometry width="160" relative="1" as="geometry">
            <mxPoint x="580" y="450" as="sourcePoint" />
            <mxPoint x="740" y="450" as="targetPoint" />
          </mxGeometry>
        </mxCell>
        <mxCell id="9gGM50FTk6xiZW7qDxYb-30" value="Extends" style="endArrow=block;endSize=16;endFill=0;html=1;rounded=0;exitX=0.5;exitY=0;exitDx=0;exitDy=0;entryX=0;entryY=1;entryDx=0;entryDy=0;" edge="1" parent="1" source="9gGM50FTk6xiZW7qDxYb-14" target="9gGM50FTk6xiZW7qDxYb-7">
          <mxGeometry width="160" relative="1" as="geometry">
            <mxPoint x="580" y="410" as="sourcePoint" />
            <mxPoint x="740" y="410" as="targetPoint" />
          </mxGeometry>
        </mxCell>
        <mxCell id="9gGM50FTk6xiZW7qDxYb-31" value="Use" style="endArrow=open;endSize=12;dashed=1;html=1;rounded=0;exitX=0;exitY=0;exitDx=0;exitDy=0;entryX=1;entryY=0;entryDx=0;entryDy=0;" edge="1" parent="1" source="9gGM50FTk6xiZW7qDxYb-1" target="9gGM50FTk6xiZW7qDxYb-7">
          <mxGeometry width="160" relative="1" as="geometry">
            <mxPoint x="450" y="200" as="sourcePoint" />
            <mxPoint x="610" y="200" as="targetPoint" />
          </mxGeometry>
        </mxCell>
      </root>
    </mxGraphModel>
  </diagram>
</mxfile>
